# xmcd
#
# Track frame offsets:
#	182
#	24407
#	42085
#	65807
#	81520
#	98537
#	122470
#	146032
#	163332
#
# Disc length: 2616 seconds
#
# Revision: 1
# Processed by: cddbd v1.4PL0 Copyright (c) Steve Scherf et al.
# Submitted via: EasyCDDAExtractor 5.1.0
#
DISCID=770a3609
DTITLE=Dr. Mablues and the detail horns - Whatchamacallit!
DYEAR=1990
DGENRE=Blues
TTITLE0=Down on my knees
TTITLE1=Hold on to me
TTITLE2=3-2-1-?
TTITLE3=Gaz' song
TTITLE4=When something is wrong with my baby
TTITLE5=Girl like you
TTITLE6=Glad man's boogie
TTITLE7=Oh Carol
TTITLE8=Dr. Mablues-Blues
EXTD=
EXTT0=
EXTT1=
EXTT2=
EXTT3=
EXTT4=
EXTT5=
EXTT6=
EXTT7=
EXTT8=
PLAYORDER=
